<svg width="641" height="647" viewBox="0 0 641 647" fill="none" xmlns="http://www.w3.org/2000/svg">
<g filter="url(#filter0_f_1139_219)">
<g filter="url(#filter1_d_1139_219)">
<path d="M245.57 409.731C243.937 398.555 224.634 341.558 189.143 316.362C156.241 293.005 143.981 239.308 174.787 191.973C197.962 156.365 227.942 136.86 224.634 107.888C221.327 78.9151 213.594 69.6956 202.145 61.7943C209.788 74.5305 210.698 94.872 189.143 119.652C167.881 144.096 94.3242 180.799 83.4547 234.109C78.7088 266.907 74.721 316.884 124.038 341.116C183.842 370.5 240.105 394.37 245.57 409.731Z" fill="#666666"/>
</g>
<g filter="url(#filter2_d_1139_219)">
<path d="M82.4956 173.207C54.2307 206.602 74.887 330.24 156.386 353.545C183.773 361.376 253.107 380.052 267.522 425.931C245.407 416.553 191.616 414.434 146.243 416.888C111.742 418.754 38.5876 396.861 21.9868 294.36C15.4528 251.01 44.0404 188.667 82.4956 173.207Z" fill="#808080"/>
</g>
<g filter="url(#filter3_d_1139_219)">
<path d="M303.169 442.056C289.441 424.296 240.368 395.312 141.337 419.303C107.579 425.414 35.6088 416.992 30.3519 336.559C13.5019 383.801 1.27385 472.36 128.082 493.15C180.74 496.776 190.388 484.378 222.529 460.214C254.67 436.049 289.681 438.04 303.169 442.056Z" fill="#999999"/>
</g>
<g filter="url(#filter4_d_1139_219)">
<path d="M395.154 409.731C396.788 398.555 416.09 341.558 451.582 316.362C484.483 293.005 496.744 239.308 465.937 191.973C442.763 156.365 412.783 136.86 416.09 107.888C419.397 78.9151 427.13 69.6956 438.58 61.7943C430.936 74.5305 430.027 94.872 451.582 119.652C472.844 144.096 546.4 180.799 557.27 234.109C562.016 266.907 566.003 316.884 516.686 341.116C456.883 370.5 400.619 394.37 395.154 409.731Z" fill="#666666"/>
</g>
<g filter="url(#filter5_d_1139_219)">
<path d="M558.228 173.207C586.493 206.602 565.837 330.24 484.338 353.545C456.95 361.376 387.617 380.052 373.202 425.931C395.316 416.553 449.108 414.434 494.48 416.888C528.982 418.754 602.136 396.861 618.737 294.36C625.271 251.01 596.683 188.667 558.228 173.207Z" fill="#7F7F7F"/>
</g>
<g filter="url(#filter6_d_1139_219)">
<path d="M337.555 442.056C351.282 424.296 400.356 395.312 499.386 419.303C533.145 425.414 605.115 416.992 610.372 336.559C627.222 383.801 639.45 472.36 512.642 493.15C459.984 496.776 450.336 484.378 418.195 460.214C386.054 436.049 351.043 438.04 337.555 442.056Z" fill="#999999"/>
</g>
<g filter="url(#filter7_d_1139_219)">
<path d="M47.461 469.713C54.4796 482.776 108.003 549.08 198.17 464.425C211.403 452.396 248.005 428.745 288.544 430.37L355.454 433.375C324.789 435.76 273.443 444.349 241.067 491.673C208.631 539.085 190.118 573.461 128.24 573.461C81.2937 573.461 50.6773 507.917 47.461 469.713Z" fill="#B3B3B3"/>
</g>
<g filter="url(#filter8_d_1139_219)">
<path d="M590.971 469.713C583.953 482.776 530.43 549.08 440.263 464.425C427.029 452.396 390.427 428.745 349.889 430.37L282.979 433.375C313.643 435.76 364.989 444.349 397.365 491.673C429.801 539.085 448.314 573.461 510.192 573.461C557.139 573.461 587.755 507.917 590.971 469.713Z" fill="#B3B3B3"/>
</g>
<g filter="url(#filter9_d_1139_219)">
<path d="M392.878 535.586C358.647 547.636 301.465 548.842 346.587 457.26C352.854 444.03 361.548 412.563 346.19 392.535L320.551 359.652C328.192 372.334 333.735 407.692 294.776 447.66C255.816 487.627 266.31 523.648 274.654 535.586C290.138 556.911 332.624 585.043 392.878 535.586Z" fill="#A6A6A6"/>
</g>
<g filter="url(#filter10_f_1139_219)">
<path fill-rule="evenodd" clip-rule="evenodd" d="M190.531 188.458C189.929 205.744 144.632 219.035 122.058 223.519C143.287 228.711 186.545 242.236 189.746 254.8C192.947 267.363 173.054 282.015 162.707 287.77C174.805 285.109 200.436 282.905 206.168 295.372C211.901 307.838 189.566 346.642 177.682 364.485C197.669 352.868 240.225 331.295 250.56 337.948C260.894 344.601 257.724 370.244 254.847 382.234C257.681 374.077 267.599 356.658 284.598 352.24C301.597 347.823 315.444 398.048 320.243 423.712C323.817 404.144 334.334 362.945 347.807 354.699C361.28 346.453 378.224 367.763 385.012 379.449C380.946 367.731 376.797 342.701 392.723 336.335C408.65 329.968 444.755 352.048 460.817 363.884C449.218 345.125 427.63 304.734 434.071 293.246C440.513 281.758 464.916 284.583 476.312 287.431C465.615 280.416 445.84 263.065 452.311 249.784C458.781 236.502 499.118 225.834 518.478 222.16C499.119 217.497 458.403 205.067 450.416 192.656C442.428 180.246 464.376 163.768 476.348 157.081C462.92 161.311 435.406 165.067 432.766 146.257C430.126 127.447 450.388 94.716 460.849 80.7019C444.817 90.7544 408.768 110.496 392.83 109.043C376.892 107.589 380.332 79.4779 384.044 65.604C378.755 76.2708 364.105 96.1474 347.823 90.3184C331.542 84.4895 322.069 42.5424 319.368 22.2974C314.955 43.9033 302.78 88.0844 289.378 91.9618C275.975 95.8392 260.118 76.0602 253.865 65.6861C257.384 79.2168 260.098 106.991 242.802 109.839C225.506 112.688 192.173 91.5416 177.668 80.6124C184.028 89.0909 198.672 112.312 206.363 137.368C214.054 162.423 180.513 161.943 162.781 158.571C172.282 161.331 191.132 171.172 190.531 188.458ZM416.48 303.941C455.655 257.534 455.931 189.391 416.83 142.922C366.606 83.2361 274.224 84.1592 224.711 144.435C186.322 191.169 186.779 258.975 226.094 304.934C276.09 363.379 366.868 362.713 416.48 303.941Z" fill="black"/>
</g>
<path fill-rule="evenodd" clip-rule="evenodd" d="M190.531 188.458C189.929 205.744 144.632 219.035 122.058 223.519C143.287 228.711 186.545 242.236 189.746 254.8C192.947 267.363 173.054 282.015 162.707 287.77C174.805 285.109 200.436 282.905 206.168 295.372C211.901 307.838 189.566 346.642 177.682 364.485C197.669 352.868 240.225 331.295 250.56 337.948C260.894 344.601 257.724 370.244 254.847 382.234C257.681 374.077 267.599 356.658 284.598 352.24C301.597 347.823 315.444 398.048 320.243 423.712C323.817 404.144 334.334 362.945 347.807 354.699C361.28 346.453 378.224 367.763 385.012 379.449C380.946 367.731 376.797 342.701 392.723 336.335C408.65 329.968 444.755 352.048 460.817 363.884C449.218 345.125 427.63 304.734 434.071 293.246C440.513 281.758 464.916 284.583 476.312 287.431C465.615 280.416 445.84 263.065 452.311 249.784C458.781 236.502 499.118 225.834 518.478 222.16C499.119 217.497 458.403 205.067 450.416 192.656C442.428 180.246 464.376 163.768 476.348 157.081C462.92 161.311 435.406 165.067 432.766 146.257C430.126 127.447 450.388 94.716 460.849 80.7019C444.817 90.7544 408.768 110.496 392.83 109.043C376.892 107.589 380.332 79.4779 384.044 65.604C378.755 76.2708 364.105 96.1474 347.823 90.3184C331.542 84.4895 322.069 42.5424 319.368 22.2974C314.955 43.9033 302.78 88.0844 289.378 91.9618C275.975 95.8392 260.118 76.0602 253.865 65.6861C257.384 79.2168 260.098 106.991 242.802 109.839C225.506 112.688 192.173 91.5416 177.668 80.6124C184.028 89.0909 198.672 112.312 206.363 137.368C214.054 162.423 180.513 161.943 162.781 158.571C172.282 161.331 191.132 171.172 190.531 188.458ZM416.48 303.941C455.655 257.534 455.931 189.391 416.83 142.922C366.606 83.2361 274.224 84.1592 224.711 144.435C186.322 191.169 186.779 258.975 226.094 304.934C276.09 363.379 366.868 362.713 416.48 303.941Z" fill="white"/>
<path d="M283.656 457.699C301.562 436.454 309.315 405.414 344.33 351.947L331.534 262.012C359.678 271.32 414.449 304.911 408.377 364.814C405.909 380.09 392.303 417.502 357.625 444.94C360.97 440.029 368.051 424.724 369.616 402.796C365.142 417.455 346.848 450.41 309.464 464.96C315.56 459.363 328.246 445.402 330.225 434.329C322.63 446.904 319.419 448.824 283.656 457.699Z" fill="url(#paint0_linear_1139_219)"/>
<path d="M404.248 391.544C403.7 386.794 420.701 308.354 321.395 263.209L373.788 168.62C375.487 187.669 388.815 228.368 428.536 238.783L414.432 246.218C423.509 257.933 439.16 287.702 429.149 313.058C428.371 308.697 425.702 299.017 421.259 295.195C426.083 313.781 429.434 359.072 404.248 391.544Z" fill="url(#paint1_linear_1139_219)"/>
<path d="M318.172 259.812C362.318 288.691 419.832 368.19 286.911 451.417C301.076 435.806 319.441 389.751 289.379 334.164C285.405 326.336 277.944 308.432 279.897 299.444C281.849 290.456 272.244 273.155 267.198 265.628C262.324 259.919 251.613 245.31 247.766 232.547C263.486 236.565 299.575 247.643 318.172 259.812Z" fill="url(#paint2_linear_1139_219)"/>
<path d="M283.656 457.699C291.881 446.155 295.901 417.366 285.037 391.952C274.173 366.536 271.252 352.46 271.15 348.599C270.632 357.156 270.497 378.01 274.098 392.97C266.889 381.262 252.413 352.425 252.181 330.745C248.504 335.292 240.504 346.667 237.927 355.796C235.042 344.886 236.685 316.672 266.34 291.089C268.486 289.054 272.507 283.828 271.421 279.204C270.623 276.109 267.575 267.97 261.772 260.182C270.372 266.856 286.719 283.887 283.315 298.618C279.911 313.349 297.822 347.385 307.203 362.561C316.805 380.052 333.309 423.047 283.656 457.699Z" fill="url(#paint3_linear_1139_219)"/>
<path d="M299.975 121.168C292.011 140.295 278.595 181.434 288.649 192.97L338.069 181.298L299.975 121.168Z" fill="url(#paint4_linear_1139_219)"/>
<path d="M299.041 145.167C296.893 154.207 294.052 174.331 299.866 182.506L310.332 178.916C306.266 169.062 298.316 148.517 299.041 145.167Z" fill="#666666"/>
<path d="M217.141 234.54C219.629 248.878 231.343 276.438 258.293 271.971C277.234 270.549 317.839 276.831 328.731 313.339C331.376 305.686 333.447 287.222 320.569 274.593C327.501 278.073 342.288 287.828 345.985 299.004C347.701 292.105 347.957 276.027 335.25 266.903C344.926 270.491 366.287 281.979 374.319 299.229C376.987 291.107 379.199 269.975 366.708 250.426C370.67 252.119 379.675 257.645 384.005 266.2C382.918 258.932 378.384 241.859 368.942 231.706C380.183 219.74 393.276 181.326 355.711 123.407L330.311 175.428C321.566 172.519 297.093 172.643 269.164 196.411C267.851 197.335 264.348 202.188 260.841 214.205C248.941 217.796 223.542 226.892 217.141 234.54Z" fill="url(#paint5_linear_1139_219)"/>
<path d="M355.753 153.516L334.878 192.004L349.889 214.297C356.776 204.943 367.59 179.691 355.753 153.516Z" fill="#666666"/>
</g>
<g filter="url(#filter11_d_1139_219)">
<path d="M245.57 409.731C243.937 398.555 224.634 341.558 189.143 316.362C156.241 293.005 143.981 239.308 174.787 191.973C197.962 156.365 227.942 136.86 224.634 107.888C221.327 78.9151 213.594 69.6956 202.145 61.7943C209.788 74.5305 210.698 94.872 189.143 119.652C167.881 144.096 94.3242 180.799 83.4547 234.109C78.7088 266.907 74.721 316.884 124.038 341.116C183.842 370.5 240.105 394.37 245.57 409.731Z" fill="#666666"/>
</g>
<g filter="url(#filter12_d_1139_219)">
<path d="M82.4956 173.207C54.2307 206.602 74.887 330.24 156.386 353.545C183.773 361.376 253.107 380.052 267.522 425.931C245.407 416.553 191.616 414.434 146.243 416.888C111.742 418.754 38.5876 396.861 21.9868 294.36C15.4528 251.01 44.0404 188.667 82.4956 173.207Z" fill="#808080"/>
</g>
<g filter="url(#filter13_d_1139_219)">
<path d="M303.169 442.056C289.441 424.296 240.368 395.312 141.337 419.303C107.579 425.414 35.6088 416.992 30.3519 336.559C13.5019 383.801 1.27385 472.36 128.082 493.15C180.74 496.776 190.388 484.378 222.529 460.214C254.67 436.049 289.681 438.04 303.169 442.056Z" fill="#999999"/>
</g>
<g filter="url(#filter14_d_1139_219)">
<path d="M395.154 409.731C396.788 398.555 416.09 341.558 451.582 316.362C484.483 293.005 496.744 239.308 465.937 191.973C442.763 156.365 412.783 136.86 416.09 107.888C419.397 78.9151 427.13 69.6956 438.58 61.7943C430.936 74.5305 430.027 94.872 451.582 119.652C472.844 144.096 546.4 180.799 557.27 234.109C562.016 266.907 566.003 316.884 516.686 341.116C456.883 370.5 400.619 394.37 395.154 409.731Z" fill="#666666"/>
</g>
<g filter="url(#filter15_d_1139_219)">
<path d="M558.228 173.207C586.493 206.602 565.837 330.24 484.338 353.545C456.95 361.376 387.617 380.052 373.202 425.931C395.316 416.553 449.108 414.434 494.48 416.888C528.982 418.754 602.136 396.861 618.737 294.36C625.271 251.01 596.683 188.667 558.228 173.207Z" fill="#7F7F7F"/>
</g>
<g filter="url(#filter16_d_1139_219)">
<path d="M337.555 442.056C351.282 424.296 400.356 395.312 499.386 419.303C533.145 425.414 605.115 416.992 610.372 336.559C627.222 383.801 639.45 472.36 512.642 493.15C459.984 496.776 450.336 484.378 418.195 460.214C386.054 436.049 351.043 438.04 337.555 442.056Z" fill="#999999"/>
</g>
<g filter="url(#filter17_d_1139_219)">
<path d="M47.461 469.713C54.4796 482.776 108.003 549.08 198.17 464.425C211.403 452.396 248.005 428.745 288.544 430.37L355.454 433.375C324.789 435.76 273.443 444.349 241.067 491.673C208.631 539.085 190.118 573.461 128.24 573.461C81.2937 573.461 50.6773 507.917 47.461 469.713Z" fill="#B3B3B3"/>
</g>
<g filter="url(#filter18_d_1139_219)">
<path d="M590.971 469.713C583.953 482.776 530.43 549.08 440.263 464.425C427.029 452.396 390.427 428.745 349.889 430.37L282.979 433.375C313.643 435.76 364.989 444.349 397.365 491.673C429.801 539.085 448.314 573.461 510.192 573.461C557.139 573.461 587.755 507.917 590.971 469.713Z" fill="#B3B3B3"/>
</g>
<g filter="url(#filter19_d_1139_219)">
<path d="M392.878 535.586C358.647 547.636 301.465 548.842 346.587 457.26C352.854 444.03 361.548 412.563 346.19 392.535L320.551 359.652C328.192 372.334 333.735 407.692 294.776 447.66C255.816 487.627 266.31 523.648 274.654 535.586C290.138 556.911 332.624 585.043 392.878 535.586Z" fill="#A6A6A6"/>
</g>
<g filter="url(#filter20_f_1139_219)">
<path fill-rule="evenodd" clip-rule="evenodd" d="M190.531 188.458C189.929 205.744 144.632 219.035 122.058 223.519C143.287 228.711 186.545 242.236 189.746 254.8C192.947 267.363 173.054 282.015 162.707 287.77C174.805 285.109 200.436 282.905 206.168 295.372C211.901 307.838 189.566 346.642 177.682 364.485C197.669 352.868 240.225 331.295 250.56 337.948C260.894 344.601 257.724 370.244 254.847 382.234C257.681 374.077 267.599 356.658 284.598 352.24C301.597 347.823 315.444 398.048 320.243 423.712C323.817 404.144 334.334 362.945 347.807 354.699C361.28 346.453 378.224 367.763 385.012 379.449C380.946 367.731 376.797 342.701 392.723 336.335C408.65 329.968 444.755 352.048 460.817 363.884C449.218 345.125 427.63 304.734 434.071 293.246C440.513 281.758 464.916 284.583 476.312 287.431C465.615 280.416 445.84 263.065 452.311 249.784C458.781 236.502 499.118 225.834 518.478 222.16C499.119 217.497 458.403 205.067 450.416 192.656C442.428 180.246 464.376 163.768 476.348 157.081C462.92 161.311 435.406 165.067 432.766 146.257C430.126 127.447 450.388 94.716 460.849 80.7019C444.817 90.7544 408.768 110.496 392.83 109.043C376.892 107.589 380.332 79.4779 384.044 65.604C378.755 76.2708 364.105 96.1474 347.823 90.3184C331.542 84.4895 322.069 42.5424 319.368 22.2974C314.955 43.9033 302.78 88.0844 289.378 91.9618C275.975 95.8392 260.118 76.0602 253.865 65.6861C257.384 79.2168 260.098 106.991 242.802 109.839C225.506 112.688 192.173 91.5416 177.668 80.6124C184.028 89.0909 198.672 112.312 206.363 137.368C214.054 162.423 180.513 161.943 162.781 158.571C172.282 161.331 191.132 171.172 190.531 188.458ZM416.48 303.941C455.655 257.534 455.931 189.391 416.83 142.922C366.606 83.2361 274.224 84.1592 224.711 144.435C186.322 191.169 186.779 258.975 226.094 304.934C276.09 363.379 366.868 362.713 416.48 303.941Z" fill="black"/>
</g>
<path fill-rule="evenodd" clip-rule="evenodd" d="M190.531 188.458C189.929 205.744 144.632 219.035 122.058 223.519C143.287 228.711 186.545 242.236 189.746 254.8C192.947 267.363 173.054 282.015 162.707 287.77C174.805 285.109 200.436 282.905 206.168 295.372C211.901 307.838 189.566 346.642 177.682 364.485C197.669 352.868 240.225 331.295 250.56 337.948C260.894 344.601 257.724 370.244 254.847 382.234C257.681 374.077 267.599 356.658 284.598 352.24C301.597 347.823 315.444 398.048 320.243 423.712C323.817 404.144 334.334 362.945 347.807 354.699C361.28 346.453 378.224 367.763 385.012 379.449C380.946 367.731 376.797 342.701 392.723 336.335C408.65 329.968 444.755 352.048 460.817 363.884C449.218 345.125 427.63 304.734 434.071 293.246C440.513 281.758 464.916 284.583 476.312 287.431C465.615 280.416 445.84 263.065 452.311 249.784C458.781 236.502 499.118 225.834 518.478 222.16C499.119 217.497 458.403 205.067 450.416 192.656C442.428 180.246 464.376 163.768 476.348 157.081C462.92 161.311 435.406 165.067 432.766 146.257C430.126 127.447 450.388 94.716 460.849 80.7019C444.817 90.7544 408.768 110.496 392.83 109.043C376.892 107.589 380.332 79.4779 384.044 65.604C378.755 76.2708 364.105 96.1474 347.823 90.3184C331.542 84.4895 322.069 42.5424 319.368 22.2974C314.955 43.9033 302.78 88.0844 289.378 91.9618C275.975 95.8392 260.118 76.0602 253.865 65.6861C257.384 79.2168 260.098 106.991 242.802 109.839C225.506 112.688 192.173 91.5416 177.668 80.6124C184.028 89.0909 198.672 112.312 206.363 137.368C214.054 162.423 180.513 161.943 162.781 158.571C172.282 161.331 191.132 171.172 190.531 188.458ZM416.48 303.941C455.655 257.534 455.931 189.391 416.83 142.922C366.606 83.2361 274.224 84.1592 224.711 144.435C186.322 191.169 186.779 258.975 226.094 304.934C276.09 363.379 366.868 362.713 416.48 303.941Z" fill="white"/>
<path d="M283.656 457.699C301.562 436.454 309.315 405.414 344.33 351.947L331.534 262.012C359.678 271.32 414.449 304.911 408.377 364.814C405.909 380.09 392.303 417.502 357.625 444.94C360.97 440.029 368.051 424.724 369.616 402.796C365.142 417.455 346.848 450.41 309.464 464.96C315.56 459.363 328.246 445.402 330.225 434.329C322.63 446.904 319.419 448.824 283.656 457.699Z" fill="url(#paint6_linear_1139_219)"/>
<path d="M404.248 391.544C403.7 386.794 420.701 308.354 321.395 263.209L373.788 168.62C375.487 187.669 388.815 228.368 428.536 238.783L414.432 246.218C423.509 257.933 439.16 287.702 429.149 313.058C428.371 308.697 425.702 299.017 421.259 295.195C426.083 313.781 429.434 359.072 404.248 391.544Z" fill="url(#paint7_linear_1139_219)"/>
<path d="M318.172 259.812C362.318 288.691 419.832 368.19 286.911 451.417C301.076 435.806 319.441 389.751 289.379 334.164C285.405 326.336 277.944 308.432 279.897 299.444C281.849 290.456 272.244 273.155 267.198 265.628C262.324 259.919 251.613 245.31 247.766 232.547C263.486 236.565 299.575 247.643 318.172 259.812Z" fill="url(#paint8_linear_1139_219)"/>
<path d="M283.656 457.699C291.881 446.155 295.901 417.366 285.037 391.952C274.173 366.536 271.252 352.46 271.15 348.599C270.632 357.156 270.497 378.01 274.098 392.97C266.889 381.262 252.413 352.425 252.181 330.745C248.504 335.292 240.504 346.667 237.927 355.796C235.042 344.886 236.685 316.672 266.34 291.089C268.486 289.054 272.507 283.828 271.421 279.204C270.623 276.109 267.575 267.97 261.772 260.182C270.372 266.856 286.719 283.887 283.315 298.618C279.911 313.349 297.822 347.385 307.203 362.561C316.805 380.052 333.309 423.047 283.656 457.699Z" fill="url(#paint9_linear_1139_219)"/>
<path d="M299.975 121.168C292.011 140.295 278.595 181.434 288.649 192.97L338.069 181.298L299.975 121.168Z" fill="url(#paint10_linear_1139_219)"/>
<path d="M299.041 145.167C296.893 154.207 294.052 174.331 299.866 182.506L310.332 178.916C306.266 169.062 298.316 148.517 299.041 145.167Z" fill="#666666"/>
<path d="M217.141 234.54C219.629 248.878 231.343 276.438 258.293 271.971C277.234 270.549 317.839 276.831 328.731 313.339C331.376 305.686 333.447 287.222 320.569 274.593C327.501 278.073 342.288 287.828 345.985 299.004C347.701 292.105 347.957 276.027 335.25 266.903C344.926 270.491 366.287 281.979 374.319 299.229C376.987 291.107 379.199 269.975 366.708 250.426C370.67 252.119 379.675 257.645 384.005 266.2C382.918 258.932 378.384 241.859 368.942 231.706C380.183 219.74 393.276 181.326 355.711 123.407L330.311 175.428C321.566 172.519 297.093 172.643 269.164 196.411C267.851 197.335 264.348 202.188 260.841 214.205C248.941 217.796 223.542 226.892 217.141 234.54Z" fill="url(#paint11_linear_1139_219)"/>
<path d="M355.753 153.516L334.878 192.004L349.889 214.297C356.776 204.943 367.59 179.691 355.753 153.516Z" fill="#666666"/>
<path d="M230.02 633.163V631.815C230.44 631.815 231.039 631.77 231.819 631.68C232.598 631.59 233.318 631.395 233.977 631.095V603.444C233.318 603.144 232.598 602.949 231.819 602.86C231.039 602.77 230.44 602.725 230.02 602.725V601.376H250.927L251.152 607.491L249.713 607.58C249.683 607.071 249.593 606.456 249.444 605.737C249.324 605.018 249.114 604.328 248.814 603.669H237.889V615.494H247.285C247.435 614.894 247.54 614.31 247.6 613.74C247.66 613.171 247.69 612.706 247.69 612.346H249.129V621.339H247.69C247.69 620.949 247.66 620.424 247.6 619.765C247.54 619.076 247.39 618.416 247.151 617.787H237.889V630.87H249.713C250.103 630.361 250.463 629.761 250.792 629.072C251.152 628.383 251.452 627.753 251.692 627.184C251.931 626.584 252.066 626.194 252.096 626.015L253.535 626.374L252.051 633.163H230.02ZM283.284 632.579C280.197 633.388 277.364 633.793 274.786 633.793C272.179 633.793 269.781 633.403 267.593 632.624C265.434 631.815 263.546 630.691 261.927 629.252C260.339 627.783 259.095 626.06 258.196 624.081C257.326 622.073 256.892 619.855 256.892 617.427C256.892 615.059 257.326 612.871 258.196 610.863C259.095 608.824 260.324 607.056 261.882 605.557C263.471 604.029 265.299 602.845 267.368 602.005C269.436 601.166 271.654 600.746 274.022 600.746C276.09 600.746 277.994 600.926 279.732 601.286C281.501 601.616 282.909 601.93 283.958 602.23L284.858 608.615L283.509 608.884C282.699 606.756 281.396 605.228 279.597 604.298C277.829 603.369 275.88 602.905 273.752 602.905C271.204 602.905 268.986 603.474 267.098 604.613C265.21 605.752 263.741 607.311 262.692 609.289C261.673 611.267 261.163 613.53 261.163 616.078C261.163 618.146 261.523 620.11 262.242 621.968C262.962 623.826 263.951 625.49 265.21 626.959C266.498 628.428 267.967 629.582 269.616 630.421C271.294 631.26 273.078 631.68 274.966 631.68C277.454 631.68 279.492 631.14 281.081 630.061C282.67 628.952 284.123 627.348 285.442 625.25L286.791 625.925L283.284 632.579ZM289.295 633.163V631.815C289.715 631.815 290.315 631.77 291.094 631.68C291.873 631.59 292.593 631.395 293.252 631.095V603.444C292.593 603.144 291.873 602.949 291.094 602.86C290.315 602.77 289.715 602.725 289.295 602.725V601.376H301.12V602.725C300.701 602.725 300.101 602.77 299.322 602.86C298.572 602.949 297.853 603.144 297.164 603.444V630.87H309.213C309.573 630.481 309.933 629.971 310.292 629.342C310.682 628.682 311.027 628.038 311.326 627.408C311.656 626.779 311.881 626.329 312.001 626.06L313.395 626.509L311.326 633.163H289.295ZM315.816 633.163V631.815C316.235 631.815 316.835 631.77 317.614 631.68C318.393 631.59 319.113 631.395 319.772 631.095V603.444C319.113 603.144 318.393 602.949 317.614 602.86C316.835 602.77 316.235 602.725 315.816 602.725V601.376H327.64V602.725C327.221 602.725 326.621 602.77 325.842 602.86C325.093 602.949 324.373 603.144 323.684 603.444V631.095C324.373 631.395 325.093 631.59 325.842 631.68C326.621 631.77 327.221 631.815 327.64 631.815V633.163H315.816ZM331.71 633.163V631.815C332.13 631.815 332.729 631.77 333.509 631.68C334.288 631.59 335.007 631.395 335.667 631.095V603.354C335.007 603.144 334.303 603.039 333.553 603.039C332.834 603.039 332.265 603.054 331.845 603.084L331.71 601.736C333.688 601.496 335.667 601.271 337.645 601.061C339.623 600.851 341.557 600.746 343.445 600.746C345.273 600.746 346.922 601.046 348.391 601.646C349.889 602.215 351.163 602.994 352.212 603.984C353.291 604.973 354.116 606.082 354.685 607.311C355.255 608.54 355.54 609.799 355.54 611.087C355.54 612.826 355.015 614.49 353.966 616.078C352.947 617.637 351.463 618.896 349.515 619.855C347.566 620.784 345.183 621.204 342.366 621.114L342.141 619.675C345.318 619.465 347.641 618.641 349.11 617.202C350.609 615.763 351.358 614.04 351.358 612.032C351.358 610.503 351.028 609.139 350.369 607.94C349.71 606.711 348.825 605.707 347.716 604.928C346.607 604.118 345.348 603.564 343.94 603.264C342.531 602.934 341.077 602.89 339.578 603.129V631.095C340.328 631.395 341.122 631.59 341.961 631.68C342.801 631.77 343.46 631.815 343.94 631.815V633.163H331.71ZM368.651 633.793C367.242 633.793 365.878 633.673 364.559 633.433C363.27 633.223 362.191 632.984 361.322 632.714C360.453 632.444 359.973 632.249 359.883 632.129L358.489 623.497L359.973 623.227C360.573 625.805 361.487 627.858 362.716 629.387C363.945 630.915 365.773 631.68 368.201 631.68C370.179 631.68 371.798 631.2 373.057 630.241C374.316 629.252 374.945 627.903 374.945 626.194C374.945 624.995 374.601 623.946 373.911 623.047C373.222 622.118 372.323 621.279 371.213 620.529C370.134 619.78 368.965 619.046 367.706 618.326C366.478 617.577 365.309 616.783 364.2 615.943C363.12 615.074 362.236 614.085 361.547 612.976C360.857 611.867 360.513 610.548 360.513 609.019C360.513 607.161 360.992 605.632 361.951 604.433C362.911 603.204 364.2 602.29 365.818 601.691C367.437 601.061 369.22 600.746 371.168 600.746C372.547 600.746 373.791 600.866 374.9 601.106C376.009 601.316 376.849 601.481 377.418 601.601L378.407 608.884L376.924 609.064C376.684 607.176 376.084 605.662 375.125 604.523C374.166 603.384 372.742 602.815 370.854 602.815C369.715 602.815 368.651 603.039 367.662 603.489C366.702 603.939 365.923 604.553 365.324 605.332C364.754 606.112 364.469 606.996 364.469 607.985C364.469 609.154 364.814 610.173 365.503 611.043C366.223 611.912 367.137 612.706 368.246 613.425C369.355 614.115 370.524 614.819 371.753 615.539C372.982 616.258 374.151 617.067 375.26 617.967C376.369 618.866 377.268 619.93 377.958 621.159C378.677 622.388 379.037 623.871 379.037 625.61C379.037 627.378 378.572 628.877 377.643 630.106C376.714 631.305 375.47 632.219 373.911 632.849C372.352 633.478 370.599 633.793 368.651 633.793ZM383.565 633.163V631.815C383.984 631.815 384.584 631.77 385.363 631.68C386.143 631.59 386.862 631.395 387.521 631.095V603.444C386.862 603.144 386.143 602.949 385.363 602.86C384.584 602.77 383.984 602.725 383.565 602.725V601.376H404.472L404.697 607.491L403.258 607.58C403.228 607.071 403.138 606.456 402.988 605.737C402.868 605.018 402.658 604.328 402.359 603.669H391.433V615.494H400.83C400.98 614.894 401.085 614.31 401.145 613.74C401.205 613.171 401.235 612.706 401.235 612.346H402.673V621.339H401.235C401.235 620.949 401.205 620.424 401.145 619.765C401.085 619.076 400.935 618.416 400.695 617.787H391.433V630.87H403.258C403.648 630.361 404.007 629.761 404.337 629.072C404.697 628.383 404.996 627.753 405.236 627.184C405.476 626.584 405.611 626.194 405.641 626.015L407.08 626.374L405.596 633.163H383.565Z" fill="white"/>
<defs>
<filter id="filter0_f_1139_219" x="-14.5315" y="-0.836548" width="669.787" height="609" filterUnits="userSpaceOnUse" color-interpolation-filters="sRGB">
<feFlood flood-opacity="0" result="BackgroundImageFix"/>
<feBlend mode="normal" in="SourceGraphic" in2="BackgroundImageFix" result="shape"/>
<feGaussianBlur stdDeviation="10" result="effect1_foregroundBlur_1139_219"/>
</filter>
<filter id="filter1_d_1139_219" x="65.2786" y="41.6189" width="195.811" height="378.976" filterUnits="userSpaceOnUse" color-interpolation-filters="sRGB">
<feFlood flood-opacity="0" result="BackgroundImageFix"/>
<feColorMatrix in="SourceAlpha" type="matrix" values="0 0 0 0 0 0 0 0 0 0 0 0 0 0 0 0 0 0 127 0" result="hardAlpha"/>
<feOffset dy="-4.65585"/>
<feGaussianBlur stdDeviation="7.75976"/>
<feComposite in2="hardAlpha" operator="out"/>
<feColorMatrix type="matrix" values="0 0 0 0 0 0 0 0 0 0 0 0 0 0 0 0 0 0 0.25 0"/>
<feBlend mode="normal" in2="BackgroundImageFix" result="effect1_dropShadow_1139_219"/>
<feBlend mode="normal" in="SourceGraphic" in2="effect1_dropShadow_1139_219" result="shape"/>
</filter>
<filter id="filter2_d_1139_219" x="5.5342" y="153.031" width="277.507" height="283.763" filterUnits="userSpaceOnUse" color-interpolation-filters="sRGB">
<feFlood flood-opacity="0" result="BackgroundImageFix"/>
<feColorMatrix in="SourceAlpha" type="matrix" values="0 0 0 0 0 0 0 0 0 0 0 0 0 0 0 0 0 0 127 0" result="hardAlpha"/>
<feOffset dy="-4.65585"/>
<feGaussianBlur stdDeviation="7.75976"/>
<feComposite in2="hardAlpha" operator="out"/>
<feColorMatrix type="matrix" values="0 0 0 0 0 0 0 0 0 0 0 0 0 0 0 0 0 0 0.25 0"/>
<feBlend mode="normal" in2="BackgroundImageFix" result="effect1_dropShadow_1139_219"/>
<feBlend mode="normal" in="SourceGraphic" in2="effect1_dropShadow_1139_219" result="shape"/>
</filter>
<filter id="filter3_d_1139_219" x="4.48048" y="316.384" width="314.208" height="188.252" filterUnits="userSpaceOnUse" color-interpolation-filters="sRGB">
<feFlood flood-opacity="0" result="BackgroundImageFix"/>
<feColorMatrix in="SourceAlpha" type="matrix" values="0 0 0 0 0 0 0 0 0 0 0 0 0 0 0 0 0 0 127 0" result="hardAlpha"/>
<feOffset dy="-4.65585"/>
<feGaussianBlur stdDeviation="7.75976"/>
<feComposite in2="hardAlpha" operator="out"/>
<feColorMatrix type="matrix" values="0 0 0 0 0 0 0 0 0 0 0 0 0 0 0 0 0 0 0.25 0"/>
<feBlend mode="normal" in2="BackgroundImageFix" result="effect1_dropShadow_1139_219"/>
<feBlend mode="normal" in="SourceGraphic" in2="effect1_dropShadow_1139_219" result="shape"/>
</filter>
<filter id="filter4_d_1139_219" x="379.635" y="41.6189" width="195.811" height="378.976" filterUnits="userSpaceOnUse" color-interpolation-filters="sRGB">
<feFlood flood-opacity="0" result="BackgroundImageFix"/>
<feColorMatrix in="SourceAlpha" type="matrix" values="0 0 0 0 0 0 0 0 0 0 0 0 0 0 0 0 0 0 127 0" result="hardAlpha"/>
<feOffset dy="-4.65585"/>
<feGaussianBlur stdDeviation="7.75976"/>
<feComposite in2="hardAlpha" operator="out"/>
<feColorMatrix type="matrix" values="0 0 0 0 0 0 0 0 0 0 0 0 0 0 0 0 0 0 0.25 0"/>
<feBlend mode="normal" in2="BackgroundImageFix" result="effect1_dropShadow_1139_219"/>
<feBlend mode="normal" in="SourceGraphic" in2="effect1_dropShadow_1139_219" result="shape"/>
</filter>
<filter id="filter5_d_1139_219" x="357.682" y="153.031" width="277.507" height="283.763" filterUnits="userSpaceOnUse" color-interpolation-filters="sRGB">
<feFlood flood-opacity="0" result="BackgroundImageFix"/>
<feColorMatrix in="SourceAlpha" type="matrix" values="0 0 0 0 0 0 0 0 0 0 0 0 0 0 0 0 0 0 127 0" result="hardAlpha"/>
<feOffset dy="-4.65585"/>
<feGaussianBlur stdDeviation="7.75976"/>
<feComposite in2="hardAlpha" operator="out"/>
<feColorMatrix type="matrix" values="0 0 0 0 0 0 0 0 0 0 0 0 0 0 0 0 0 0 0.25 0"/>
<feBlend mode="normal" in2="BackgroundImageFix" result="effect1_dropShadow_1139_219"/>
<feBlend mode="normal" in="SourceGraphic" in2="effect1_dropShadow_1139_219" result="shape"/>
</filter>
<filter id="filter6_d_1139_219" x="322.035" y="316.384" width="314.208" height="188.252" filterUnits="userSpaceOnUse" color-interpolation-filters="sRGB">
<feFlood flood-opacity="0" result="BackgroundImageFix"/>
<feColorMatrix in="SourceAlpha" type="matrix" values="0 0 0 0 0 0 0 0 0 0 0 0 0 0 0 0 0 0 127 0" result="hardAlpha"/>
<feOffset dy="-4.65585"/>
<feGaussianBlur stdDeviation="7.75976"/>
<feComposite in2="hardAlpha" operator="out"/>
<feColorMatrix type="matrix" values="0 0 0 0 0 0 0 0 0 0 0 0 0 0 0 0 0 0 0.25 0"/>
<feBlend mode="normal" in2="BackgroundImageFix" result="effect1_dropShadow_1139_219"/>
<feBlend mode="normal" in="SourceGraphic" in2="effect1_dropShadow_1139_219" result="shape"/>
</filter>
<filter id="filter7_d_1139_219" x="31.9414" y="410.115" width="339.032" height="174.21" filterUnits="userSpaceOnUse" color-interpolation-filters="sRGB">
<feFlood flood-opacity="0" result="BackgroundImageFix"/>
<feColorMatrix in="SourceAlpha" type="matrix" values="0 0 0 0 0 0 0 0 0 0 0 0 0 0 0 0 0 0 127 0" result="hardAlpha"/>
<feOffset dy="-4.65585"/>
<feGaussianBlur stdDeviation="7.75976"/>
<feComposite in2="hardAlpha" operator="out"/>
<feColorMatrix type="matrix" values="0 0 0 0 0 0 0 0 0 0 0 0 0 0 0 0 0 0 0.25 0"/>
<feBlend mode="normal" in2="BackgroundImageFix" result="effect1_dropShadow_1139_219"/>
<feBlend mode="normal" in="SourceGraphic" in2="effect1_dropShadow_1139_219" result="shape"/>
</filter>
<filter id="filter8_d_1139_219" x="267.459" y="410.115" width="339.032" height="174.21" filterUnits="userSpaceOnUse" color-interpolation-filters="sRGB">
<feFlood flood-opacity="0" result="BackgroundImageFix"/>
<feColorMatrix in="SourceAlpha" type="matrix" values="0 0 0 0 0 0 0 0 0 0 0 0 0 0 0 0 0 0 127 0" result="hardAlpha"/>
<feOffset dy="-4.65585"/>
<feGaussianBlur stdDeviation="7.75976"/>
<feComposite in2="hardAlpha" operator="out"/>
<feColorMatrix type="matrix" values="0 0 0 0 0 0 0 0 0 0 0 0 0 0 0 0 0 0 0.25 0"/>
<feBlend mode="normal" in2="BackgroundImageFix" result="effect1_dropShadow_1139_219"/>
<feBlend mode="normal" in="SourceGraphic" in2="effect1_dropShadow_1139_219" result="shape"/>
</filter>
<filter id="filter9_d_1139_219" x="255.921" y="344.753" width="157.132" height="234.494" filterUnits="userSpaceOnUse" color-interpolation-filters="sRGB">
<feFlood flood-opacity="0" result="BackgroundImageFix"/>
<feColorMatrix in="SourceAlpha" type="matrix" values="0 0 0 0 0 0 0 0 0 0 0 0 0 0 0 0 0 0 127 0" result="hardAlpha"/>
<feOffset dx="4.65585" dy="0.620781"/>
<feGaussianBlur stdDeviation="7.75976"/>
<feComposite in2="hardAlpha" operator="out"/>
<feColorMatrix type="matrix" values="0 0 0 0 0 0 0 0 0 0 0 0 0 0 0 0 0 0 0.25 0"/>
<feBlend mode="normal" in2="BackgroundImageFix" result="effect1_dropShadow_1139_219"/>
<feBlend mode="normal" in="SourceGraphic" in2="effect1_dropShadow_1139_219" result="shape"/>
</filter>
<filter id="filter10_f_1139_219" x="99.7605" y="7.62939e-06" width="441.015" height="446.01" filterUnits="userSpaceOnUse" color-interpolation-filters="sRGB">
<feFlood flood-opacity="0" result="BackgroundImageFix"/>
<feBlend mode="normal" in="SourceGraphic" in2="BackgroundImageFix" result="shape"/>
<feGaussianBlur stdDeviation="11.1487" result="effect1_foregroundBlur_1139_219"/>
</filter>
<filter id="filter11_d_1139_219" x="65.2786" y="41.6189" width="195.811" height="378.976" filterUnits="userSpaceOnUse" color-interpolation-filters="sRGB">
<feFlood flood-opacity="0" result="BackgroundImageFix"/>
<feColorMatrix in="SourceAlpha" type="matrix" values="0 0 0 0 0 0 0 0 0 0 0 0 0 0 0 0 0 0 127 0" result="hardAlpha"/>
<feOffset dy="-4.65585"/>
<feGaussianBlur stdDeviation="7.75976"/>
<feComposite in2="hardAlpha" operator="out"/>
<feColorMatrix type="matrix" values="0 0 0 0 0 0 0 0 0 0 0 0 0 0 0 0 0 0 0.25 0"/>
<feBlend mode="normal" in2="BackgroundImageFix" result="effect1_dropShadow_1139_219"/>
<feBlend mode="normal" in="SourceGraphic" in2="effect1_dropShadow_1139_219" result="shape"/>
</filter>
<filter id="filter12_d_1139_219" x="5.5342" y="153.031" width="277.507" height="283.763" filterUnits="userSpaceOnUse" color-interpolation-filters="sRGB">
<feFlood flood-opacity="0" result="BackgroundImageFix"/>
<feColorMatrix in="SourceAlpha" type="matrix" values="0 0 0 0 0 0 0 0 0 0 0 0 0 0 0 0 0 0 127 0" result="hardAlpha"/>
<feOffset dy="-4.65585"/>
<feGaussianBlur stdDeviation="7.75976"/>
<feComposite in2="hardAlpha" operator="out"/>
<feColorMatrix type="matrix" values="0 0 0 0 0 0 0 0 0 0 0 0 0 0 0 0 0 0 0.25 0"/>
<feBlend mode="normal" in2="BackgroundImageFix" result="effect1_dropShadow_1139_219"/>
<feBlend mode="normal" in="SourceGraphic" in2="effect1_dropShadow_1139_219" result="shape"/>
</filter>
<filter id="filter13_d_1139_219" x="4.48048" y="316.384" width="314.208" height="188.252" filterUnits="userSpaceOnUse" color-interpolation-filters="sRGB">
<feFlood flood-opacity="0" result="BackgroundImageFix"/>
<feColorMatrix in="SourceAlpha" type="matrix" values="0 0 0 0 0 0 0 0 0 0 0 0 0 0 0 0 0 0 127 0" result="hardAlpha"/>
<feOffset dy="-4.65585"/>
<feGaussianBlur stdDeviation="7.75976"/>
<feComposite in2="hardAlpha" operator="out"/>
<feColorMatrix type="matrix" values="0 0 0 0 0 0 0 0 0 0 0 0 0 0 0 0 0 0 0.25 0"/>
<feBlend mode="normal" in2="BackgroundImageFix" result="effect1_dropShadow_1139_219"/>
<feBlend mode="normal" in="SourceGraphic" in2="effect1_dropShadow_1139_219" result="shape"/>
</filter>
<filter id="filter14_d_1139_219" x="379.635" y="41.6189" width="195.811" height="378.976" filterUnits="userSpaceOnUse" color-interpolation-filters="sRGB">
<feFlood flood-opacity="0" result="BackgroundImageFix"/>
<feColorMatrix in="SourceAlpha" type="matrix" values="0 0 0 0 0 0 0 0 0 0 0 0 0 0 0 0 0 0 127 0" result="hardAlpha"/>
<feOffset dy="-4.65585"/>
<feGaussianBlur stdDeviation="7.75976"/>
<feComposite in2="hardAlpha" operator="out"/>
<feColorMatrix type="matrix" values="0 0 0 0 0 0 0 0 0 0 0 0 0 0 0 0 0 0 0.25 0"/>
<feBlend mode="normal" in2="BackgroundImageFix" result="effect1_dropShadow_1139_219"/>
<feBlend mode="normal" in="SourceGraphic" in2="effect1_dropShadow_1139_219" result="shape"/>
</filter>
<filter id="filter15_d_1139_219" x="357.682" y="153.031" width="277.507" height="283.763" filterUnits="userSpaceOnUse" color-interpolation-filters="sRGB">
<feFlood flood-opacity="0" result="BackgroundImageFix"/>
<feColorMatrix in="SourceAlpha" type="matrix" values="0 0 0 0 0 0 0 0 0 0 0 0 0 0 0 0 0 0 127 0" result="hardAlpha"/>
<feOffset dy="-4.65585"/>
<feGaussianBlur stdDeviation="7.75976"/>
<feComposite in2="hardAlpha" operator="out"/>
<feColorMatrix type="matrix" values="0 0 0 0 0 0 0 0 0 0 0 0 0 0 0 0 0 0 0.25 0"/>
<feBlend mode="normal" in2="BackgroundImageFix" result="effect1_dropShadow_1139_219"/>
<feBlend mode="normal" in="SourceGraphic" in2="effect1_dropShadow_1139_219" result="shape"/>
</filter>
<filter id="filter16_d_1139_219" x="322.035" y="316.384" width="314.208" height="188.252" filterUnits="userSpaceOnUse" color-interpolation-filters="sRGB">
<feFlood flood-opacity="0" result="BackgroundImageFix"/>
<feColorMatrix in="SourceAlpha" type="matrix" values="0 0 0 0 0 0 0 0 0 0 0 0 0 0 0 0 0 0 127 0" result="hardAlpha"/>
<feOffset dy="-4.65585"/>
<feGaussianBlur stdDeviation="7.75976"/>
<feComposite in2="hardAlpha" operator="out"/>
<feColorMatrix type="matrix" values="0 0 0 0 0 0 0 0 0 0 0 0 0 0 0 0 0 0 0.25 0"/>
<feBlend mode="normal" in2="BackgroundImageFix" result="effect1_dropShadow_1139_219"/>
<feBlend mode="normal" in="SourceGraphic" in2="effect1_dropShadow_1139_219" result="shape"/>
</filter>
<filter id="filter17_d_1139_219" x="31.9414" y="410.115" width="339.032" height="174.21" filterUnits="userSpaceOnUse" color-interpolation-filters="sRGB">
<feFlood flood-opacity="0" result="BackgroundImageFix"/>
<feColorMatrix in="SourceAlpha" type="matrix" values="0 0 0 0 0 0 0 0 0 0 0 0 0 0 0 0 0 0 127 0" result="hardAlpha"/>
<feOffset dy="-4.65585"/>
<feGaussianBlur stdDeviation="7.75976"/>
<feComposite in2="hardAlpha" operator="out"/>
<feColorMatrix type="matrix" values="0 0 0 0 0 0 0 0 0 0 0 0 0 0 0 0 0 0 0.25 0"/>
<feBlend mode="normal" in2="BackgroundImageFix" result="effect1_dropShadow_1139_219"/>
<feBlend mode="normal" in="SourceGraphic" in2="effect1_dropShadow_1139_219" result="shape"/>
</filter>
<filter id="filter18_d_1139_219" x="267.459" y="410.115" width="339.032" height="174.21" filterUnits="userSpaceOnUse" color-interpolation-filters="sRGB">
<feFlood flood-opacity="0" result="BackgroundImageFix"/>
<feColorMatrix in="SourceAlpha" type="matrix" values="0 0 0 0 0 0 0 0 0 0 0 0 0 0 0 0 0 0 127 0" result="hardAlpha"/>
<feOffset dy="-4.65585"/>
<feGaussianBlur stdDeviation="7.75976"/>
<feComposite in2="hardAlpha" operator="out"/>
<feColorMatrix type="matrix" values="0 0 0 0 0 0 0 0 0 0 0 0 0 0 0 0 0 0 0.25 0"/>
<feBlend mode="normal" in2="BackgroundImageFix" result="effect1_dropShadow_1139_219"/>
<feBlend mode="normal" in="SourceGraphic" in2="effect1_dropShadow_1139_219" result="shape"/>
</filter>
<filter id="filter19_d_1139_219" x="255.921" y="344.753" width="157.132" height="234.494" filterUnits="userSpaceOnUse" color-interpolation-filters="sRGB">
<feFlood flood-opacity="0" result="BackgroundImageFix"/>
<feColorMatrix in="SourceAlpha" type="matrix" values="0 0 0 0 0 0 0 0 0 0 0 0 0 0 0 0 0 0 127 0" result="hardAlpha"/>
<feOffset dx="4.65585" dy="0.620781"/>
<feGaussianBlur stdDeviation="7.75976"/>
<feComposite in2="hardAlpha" operator="out"/>
<feColorMatrix type="matrix" values="0 0 0 0 0 0 0 0 0 0 0 0 0 0 0 0 0 0 0.25 0"/>
<feBlend mode="normal" in2="BackgroundImageFix" result="effect1_dropShadow_1139_219"/>
<feBlend mode="normal" in="SourceGraphic" in2="effect1_dropShadow_1139_219" result="shape"/>
</filter>
<filter id="filter20_f_1139_219" x="99.7605" y="7.62939e-06" width="441.015" height="446.01" filterUnits="userSpaceOnUse" color-interpolation-filters="sRGB">
<feFlood flood-opacity="0" result="BackgroundImageFix"/>
<feBlend mode="normal" in="SourceGraphic" in2="BackgroundImageFix" result="shape"/>
<feGaussianBlur stdDeviation="11.1487" result="effect1_foregroundBlur_1139_219"/>
</filter>
<linearGradient id="paint0_linear_1139_219" x1="389.092" y1="381.694" x2="289.648" y2="283.162" gradientUnits="userSpaceOnUse">
<stop stop-color="#B3B3B3"/>
<stop offset="1" stop-color="#7F7F7F"/>
</linearGradient>
<linearGradient id="paint1_linear_1139_219" x1="432.896" y1="304.001" x2="308.25" y2="207.726" gradientUnits="userSpaceOnUse">
<stop stop-color="#B3B3B3"/>
<stop offset="1" stop-color="#7F7F7F"/>
</linearGradient>
<linearGradient id="paint2_linear_1139_219" x1="367.423" y1="356.506" x2="249.668" y2="287.341" gradientUnits="userSpaceOnUse">
<stop stop-color="#B3B3B3"/>
<stop offset="1" stop-color="#7F7F7F"/>
</linearGradient>
<linearGradient id="paint3_linear_1139_219" x1="333.707" y1="386.433" x2="228.716" y2="277.18" gradientUnits="userSpaceOnUse">
<stop stop-color="#B3B3B3"/>
<stop offset="1" stop-color="#7F7F7F"/>
</linearGradient>
<linearGradient id="paint4_linear_1139_219" x1="332.375" y1="175.033" x2="289.6" y2="147.96" gradientUnits="userSpaceOnUse">
<stop stop-color="#B3B3B3"/>
<stop offset="1" stop-color="#7F7F7F"/>
</linearGradient>
<linearGradient id="paint5_linear_1139_219" x1="380.904" y1="258.789" x2="269.787" y2="196.652" gradientUnits="userSpaceOnUse">
<stop stop-color="#B3B3B3"/>
<stop offset="1" stop-color="#7F7F7F"/>
</linearGradient>
<linearGradient id="paint6_linear_1139_219" x1="389.092" y1="381.694" x2="289.648" y2="283.162" gradientUnits="userSpaceOnUse">
<stop stop-color="#B3B3B3"/>
<stop offset="1" stop-color="#7F7F7F"/>
</linearGradient>
<linearGradient id="paint7_linear_1139_219" x1="432.896" y1="304.001" x2="308.25" y2="207.726" gradientUnits="userSpaceOnUse">
<stop stop-color="#B3B3B3"/>
<stop offset="1" stop-color="#7F7F7F"/>
</linearGradient>
<linearGradient id="paint8_linear_1139_219" x1="367.423" y1="356.506" x2="249.668" y2="287.341" gradientUnits="userSpaceOnUse">
<stop stop-color="#B3B3B3"/>
<stop offset="1" stop-color="#7F7F7F"/>
</linearGradient>
<linearGradient id="paint9_linear_1139_219" x1="333.707" y1="386.433" x2="228.716" y2="277.18" gradientUnits="userSpaceOnUse">
<stop stop-color="#B3B3B3"/>
<stop offset="1" stop-color="#7F7F7F"/>
</linearGradient>
<linearGradient id="paint10_linear_1139_219" x1="332.375" y1="175.033" x2="289.6" y2="147.96" gradientUnits="userSpaceOnUse">
<stop stop-color="#B3B3B3"/>
<stop offset="1" stop-color="#7F7F7F"/>
</linearGradient>
<linearGradient id="paint11_linear_1139_219" x1="380.904" y1="258.789" x2="269.787" y2="196.652" gradientUnits="userSpaceOnUse">
<stop stop-color="#B3B3B3"/>
<stop offset="1" stop-color="#7F7F7F"/>
</linearGradient>
</defs>
</svg>
