<svg width="612" height="109" viewBox="0 0 612 109" fill="none" xmlns="http://www.w3.org/2000/svg">
<path d="M34.9499 44.1H85.4999L81.7499 63H31.1999L34.9499 44.1ZM28.0499 87.3H85.3499L81.2999 106.8H-9.7502e-05L20.9999 1.80004H100.35L96.2999 21.3H41.2499L28.0499 87.3ZM148.335 108.6C137.635 108.6 128.385 106.7 120.585 102.9C112.885 99 106.935 93.65 102.735 86.85C98.5347 79.95 96.4347 72 96.4347 63C96.4347 54.1 97.9847 45.8 101.085 38.1C104.285 30.4 108.735 23.75 114.435 18.15C120.235 12.45 127.085 8.00005 134.985 4.80005C142.985 1.60005 151.885 4.69685e-05 161.685 4.69685e-05C171.085 4.69685e-05 179.385 1.60005 186.585 4.80005C193.785 8.00005 199.235 12.6 202.935 18.6L185.385 33C182.685 29 179.235 25.95 175.035 23.85C170.835 21.75 165.835 20.7 160.035 20.7C154.135 20.7 148.785 21.75 143.985 23.85C139.185 25.85 135.035 28.75 131.535 32.55C128.135 36.25 125.535 40.6 123.735 45.6C121.935 50.6 121.035 55.9 121.035 61.5C121.035 66.8 122.185 71.45 124.485 75.45C126.785 79.35 130.135 82.4 134.535 84.6C138.935 86.8 144.235 87.9 150.435 87.9C155.835 87.9 160.885 86.95 165.585 85.05C170.285 83.05 174.535 79.95 178.335 75.75L192.735 90.45C187.235 96.85 180.685 101.5 173.085 104.4C165.585 107.2 157.335 108.6 148.335 108.6ZM195.644 106.8L216.644 1.80004H241.094L223.994 87H276.644L272.594 106.8H195.644ZM278.672 106.8L299.672 1.80004H324.122L303.122 106.8H278.672ZM320.391 106.8L341.391 1.80004H383.841C396.941 1.80004 407.041 4.70004 414.141 10.5C421.341 16.2 424.941 24.2 424.941 34.5C424.941 43.3 422.891 51 418.791 57.6C414.691 64.1 408.791 69.1 401.091 72.6C393.491 76.1 384.441 77.85 373.941 77.85H339.891L352.791 66.75L344.841 106.8H320.391ZM352.191 69.6L343.641 58.05H374.991C382.991 58.05 389.191 56.25 393.591 52.65C398.091 48.95 400.341 43.6 400.341 36.6C400.341 31.5 398.641 27.75 395.241 25.35C391.841 22.85 387.041 21.6 380.841 21.6H351.291L364.191 9.75005L352.191 69.6ZM459.354 108.6C453.654 108.6 448.104 108.05 442.704 106.95C437.404 105.95 432.554 104.55 428.154 102.75C423.854 100.95 420.204 99 417.204 96.9L427.104 78.15C430.404 80.45 433.904 82.45 437.604 84.15C441.404 85.75 445.354 87 449.454 87.9C453.554 88.7 457.654 89.1 461.754 89.1C466.254 89.1 470.104 88.6 473.304 87.6C476.604 86.6 479.104 85.2 480.804 83.4C482.604 81.6 483.504 79.4 483.504 76.8C483.504 74.4 482.554 72.45 480.654 70.95C478.754 69.45 476.254 68.2 473.154 67.2C470.154 66.1 466.804 65.05 463.104 64.05C459.404 63.05 455.654 61.9 451.854 60.6C448.154 59.2 444.754 57.5 441.654 55.5C438.654 53.4 436.204 50.75 434.304 47.55C432.404 44.35 431.454 40.35 431.454 35.55C431.454 28.35 433.404 22.1 437.304 16.8C441.304 11.5 446.904 7.40004 454.104 4.50004C461.304 1.50005 469.754 4.69685e-05 479.454 4.69685e-05C486.554 4.69685e-05 493.254 0.800046 499.554 2.40004C505.854 3.90004 511.254 6.10004 515.754 9.00005L506.604 27.6C502.604 24.9 498.154 22.9 493.254 21.6C488.354 20.2 483.304 19.5 478.104 19.5C473.404 19.5 469.354 20.05 465.954 21.15C462.654 22.25 460.104 23.8 458.304 25.8C456.604 27.7 455.754 29.9 455.754 32.4C455.754 34.9 456.654 36.95 458.454 38.55C460.354 40.05 462.854 41.35 465.954 42.45C469.054 43.45 472.454 44.45 476.154 45.45C479.854 46.45 483.554 47.6 487.254 48.9C490.954 50.2 494.354 51.85 497.454 53.85C500.554 55.85 503.054 58.4 504.954 61.5C506.854 64.5 507.804 68.3 507.804 72.9C507.804 80.1 505.804 86.4 501.804 91.8C497.804 97.1 492.154 101.25 484.854 104.25C477.654 107.15 469.154 108.6 459.354 108.6ZM545.858 44.1H596.408L592.658 63H542.108L545.858 44.1ZM538.958 87.3H596.258L592.208 106.8H510.908L531.908 1.80004H611.258L607.208 21.3H552.158L538.958 87.3Z" fill="white"/>
</svg>
